<svg id="Layer_1" data-name="Layer 1" xmlns="http://www.w3.org/2000/svg" viewBox="0 0 959.24 259.96"><path d="M483,135.69c.25-1.16.47-2.13.66-3.1,1.08-5.65,6.36-8.3,11.56-5.55,2.76,1.46,3.35,4.22,3.07,7a17,17,0,0,1-1.48,5.24c-1.86,4.12-5.69,5.65-10.29,5.18a25.54,25.54,0,0,1-14.91-7,19.65,19.65,0,0,1-5.67-10.49,67.15,67.15,0,0,1-.62-26.68,74.4,74.4,0,0,1,8.55-23c.85-1.54,1.64-3.11,2.46-4.67a5.61,5.61,0,0,0,.43-4.48c-1-3-.25-5.85.47-8.68.55-2.2,2.49-3,4.54-3.28a13.09,13.09,0,0,1,2,0c18,0,36-.07,54,0,7.9,0,13.62,4,17.48,10.74a28.5,28.5,0,0,1,3.44,14.41q.07,54.64,0,109.3a20.73,20.73,0,0,1-3.09,11.53c-2.11,3.27-5.3,5-8.72,6.41a42.82,42.82,0,0,1-15.89,3.11q-48.46.14-96.95.21a12.19,12.19,0,0,1-2.41-.2,3.06,3.06,0,0,1-2.61-2.62,3.14,3.14,0,0,1,1.64-3.52,8.28,8.28,0,0,1,2.23-.9,2.69,2.69,0,0,0,2.23-2.84c0-.44.06-.88.07-1.32,0-.66,0-1.32,0-2q.09-64.46.17-128.91a26,26,0,0,0-.15-3.3c-.25-2-1-2.65-3-2.88-1.67-.19-3.37-.27-5-.6a3.25,3.25,0,0,1-.05-6.41,11.44,11.44,0,0,1,2.61-.25q14.22,0,28.43,0c3.1,0,3.68.58,3.68,3.76q0,45.95,0,91.89v25.78c0,.59,0,1.18,0,1.77a1.13,1.13,0,0,0,1,1.27H463c.29,0,.58,0,.88,0l57.28.24a5.36,5.36,0,0,0,3.46-1.16,10.61,10.61,0,0,0,4.48-8.84q-.09-41.64,0-83.3c0-5.13-2.66-7-6.48-7.71a32.06,32.06,0,0,0-11.39-.27A22.87,22.87,0,0,0,500.1,85a89.74,89.74,0,0,0-18.2,21.37,22,22,0,0,0-3.26,14.12c.35,3.57.8,7.13,1.43,10.66a6,6,0,0,0,2.89,4.51Z" transform="translate(0 0)" fill="#2e3192"/><path d="M154,147.71A2,2,0,0,0,152.8,150c.19,1.34.52,2.61-1,3.46a5.64,5.64,0,0,1-5.21.49c-5-1.94-6.87-5.82-7.5-10.73A12.86,12.86,0,0,1,142,133a38.08,38.08,0,0,1,11.19-9.8c1.35-.73,1.53-1.74,1.53-3.08,0-13.14,0-26.29,0-39.44a26,26,0,0,1,1.48-8.86,16.25,16.25,0,0,1,8-9,55.55,55.55,0,0,1,17.34-5.4,114,114,0,0,1,18.65-1.17q36.8.06,73.6,0a15.51,15.51,0,0,1,3.25.38,2.94,2.94,0,0,1,2.25,2.7,3,3,0,0,1-1.36,3,10.68,10.68,0,0,1-2.58,1.16,2.77,2.77,0,0,0-2.27,2.84c0,.59,0,1.18,0,1.76V199c0,.59,0,1.18,0,1.77.08,2.66.4,3.1,2.8,4a12.87,12.87,0,0,1,2,1,3,3,0,0,1,1.49,3.18,3.26,3.26,0,0,1-2.54,2.74A11.31,11.31,0,0,1,274,212q-15.09,0-30.19,0a12.36,12.36,0,0,1-2.19-.17,3.25,3.25,0,0,1-2.83-2.95c-.19-1.52.37-2.52,1.95-3.33a17,17,0,0,1,1.84-.7c2.09-.79,2.24-1,2.27-3.18s-.14-4.71,0-7a12.9,12.9,0,0,0-2.18-8.07,261.25,261.25,0,0,0-17.85-25.37c-7.81-9.81-17.9-16.37-29.47-20.84-2.86-1.1-5.82-2-8.74-2.94a18.7,18.7,0,0,0-2.35-.44c0,.92-.13,1.63-.13,2.33q0,30.3,0,60.6c0,.52,0,1,.05,1.54a2.59,2.59,0,0,0,2.24,2.6c1.36.29,2.72.6,4.07.93a12.33,12.33,0,0,1,2.09.64,3.22,3.22,0,0,1,2.11,3,3.72,3.72,0,0,1-2.72,3.12,14.37,14.37,0,0,1-2.85.24H149.9a18.51,18.51,0,0,1-3.07-.23,3.35,3.35,0,0,1-2.66-2.85,2.83,2.83,0,0,1,2-3.29c2-.75,4-1.29,6.06-1.93s2.33-1,2.47-3.09c0-.58,0-1.17,0-1.76q0-24,0-48c0-1,.25-2-.66-3.08ZM244.4,139c.6-2.38.53-53.8,0-55.5-.41-.08-.83-.13-1.24-.17-5-.09-10-.26-15-.25q-15.08,0-30.15.27a15.17,15.17,0,0,0-4.54.67c-5.18,1.73-9.35,7.66-9.38,13.17,0,5.14,0,10.27,0,15.41,0,.65.08,1.29.13,2.22,2,.21,4,.46,5.92.61a71.89,71.89,0,0,1,22.39,5.13,149.88,149.88,0,0,1,27.94,15.65c1.25.87,2.48,1.77,3.9,2.79Z" transform="translate(0 0)" fill="#2e3192"/><path d="M901.58,150.88c.42,2.49,1.2,4.36,3.3,5.82a10.87,10.87,0,0,0,1-1.64,5.43,5.43,0,0,1,4.93-3.48,11.38,11.38,0,0,1,5.21.48,6.49,6.49,0,0,1,3.88,8.31c-.05.13-.1.25-.16.38a10.07,10.07,0,0,1-8.34,6.35c-9.25,1.34-17.56-4.88-19.63-14.12-.47-2.08-.5-2.1-2.53-2.1-9.4-.07-18.8-.24-28.2-.15a21,21,0,0,1-20-15.1,30.76,30.76,0,0,1-1.22-8.69q0-23.46,0-46.93A24.48,24.48,0,0,1,848.48,61a15.55,15.55,0,0,1,7.76-3.42,54.74,54.74,0,0,1,10.3-.85q43.63.08,87.26,0a6.79,6.79,0,0,1,4,.81c1.46,1,1.79,2,1,3.55a13,13,0,0,1-1.35,2c-2.38,3-4.79,5.94-7.18,8.91-1.56,1.94-3.14,3.88-4.68,5.84C937,88.75,928.39,99.6,920.76,111.2c-1.89,2.88-3.73,5.8-5.58,8.7-.26.41-.44.87-.82,1.65h22.91c7.4,0,12.94,3.39,16.9,9.44a25.28,25.28,0,0,1,4.05,14.18q0,23.47,0,46.94a18.78,18.78,0,0,1-4.59,12.74,16.42,16.42,0,0,1-7.57,4.66,40.14,40.14,0,0,1-11,1.91c-4.91.26-9.82.54-14.73.55q-37,.08-74.05,0a21.77,21.77,0,0,1-2.42-.05c-2.35-.26-3.49-1.53-3.51-3.93,0-2.57-.05-5.14,0-7.71a137.74,137.74,0,0,0-1.22-20.2,7.47,7.47,0,0,1,.29-3.22,2.5,2.5,0,0,1,4.25-1,10.29,10.29,0,0,1,2,3.31c2.07,5.11,1.4,4.21,6.28,4.22q35.26,0,70.52,0a16,16,0,0,0,4.07-.67,3.09,3.09,0,0,0,2.36-3.3c0-1.32,0-2.64,0-4V155.38c0-3.37-.81-4.39-4.21-4.56-4-.2-7.92-.16-11.89-.19-3,0-6,0-9,.06-.64,0-1.28.11-2.22.19Zm-6.79-29.33c.38-1.65.64-3,1-4.34q2.45-8.56,5-17.1c1.18-4,2.37-8,3.69-11.94.93-2.79.77-3.12-2.22-3.16H873.37a24.88,24.88,0,0,0-2.86.13c-2.3.28-3.26,1.28-3.27,3.62q0,14.53,0,29.07a3.42,3.42,0,0,0,2.93,3.56,9.3,9.3,0,0,0,2,.15q10.25,0,20.49,0Z" transform="translate(0 0)" fill="#2e3192"/><path d="M669.68,132.43c.81-1.34,1.46-2.47,2.17-3.57a7.67,7.67,0,0,1,13,.25,9.71,9.71,0,0,1-1,11.66,13.21,13.21,0,0,1-17.09,3,5.93,5.93,0,0,0-3.33-.88q-26,0-52,0c-.72,0-1.44.06-2.1.1-.54,1.72-.64,37.4-.11,39.84.65,0,1.37.12,2.08.12l81.3.24c2.76,0,2.79-.09,3.77-2.7a23.42,23.42,0,0,1,1.88-3.95,2.71,2.71,0,0,1,3.24-1.29A2.78,2.78,0,0,1,703.4,178c.25,3.51.57,7,.62,10.54a156.91,156.91,0,0,0,1.2,18.88c.34,2.57-.79,4-3.39,4.45a16.57,16.57,0,0,1-2.64.15H575.34c-1,0-2.05-.2-3.07-.19a3.87,3.87,0,0,1-3.49-3.14c-.19-1.27,1-2.79,2.67-3.39s3.65-1.09,5.47-1.65,2.23-.93,2.39-2.9c.05-.66,0-1.32,0-2q0-60.72,0-121.43a20.43,20.43,0,0,0-.93-7.16,9.44,9.44,0,0,0-3.4-4.75c-1.8-1.24-3.73-2.31-5.59-3.48a10.33,10.33,0,0,1-2.31-1.62c-1.24-1.39-.92-2.75.74-3.56a5.85,5.85,0,0,1,1.68-.47,9.9,9.9,0,0,1,1.54,0l122.53,0a12.72,12.72,0,0,1,3.69.42c2.76.84,3.3,3.32,1.34,5.42-2.65,2.84-5.29,5.7-7.88,8.61a44,44,0,0,0-6.66,9.81c-3.14,6.37-6.23,12.78-9.21,19.23a66.69,66.69,0,0,0-4.24,14.31c-.6,2.87-1.32,5.72-1.87,8.61a36.82,36.82,0,0,0-.62,5.45,5.45,5.45,0,0,0,1.54,4.3ZM657.59,81.72c-1.31-.06-2.17-.14-3-.13-9.31.07-18.63.16-27.94.22-5.06,0-10.13,0-15.19,0-.78,0-1.56.08-2.28.12-.46,2.53-.37,27.1.06,28.73,2.18.45,43.12.38,44.9-.13,1.14-9.44,2.29-19,3.48-28.82Z" transform="translate(0 0)" fill="#2e3192"/><path d="M386.32,148c.05-.7.14-1.39.14-2.09q0-39,0-78c0-.37,0-.74,0-1.1-.14-1.74-.64-2.26-2.36-2.64a51.34,51.34,0,0,1-5.34-1.31,4.54,4.54,0,0,1-2.19-1.67A3.13,3.13,0,0,1,377.76,57a3,3,0,0,1,.55-.24,8.61,8.61,0,0,1,2.8-.46q17.85,0,35.7,0a8.5,8.5,0,0,1,3.19.65,2.94,2.94,0,0,1,1.67,3.81,2.9,2.9,0,0,1-.76,1.11,12.79,12.79,0,0,1-3.6,2.44A2.72,2.72,0,0,0,415.46,67c0,.59,0,1.18,0,1.76V200.49c0,.51,0,1,0,1.54a2.48,2.48,0,0,0,1.8,2.48,15.49,15.49,0,0,1,2.64,1.06,3.25,3.25,0,0,1,2,3.6,3.33,3.33,0,0,1-3.13,2.64,19.26,19.26,0,0,1-2.63.18H385.68a12.88,12.88,0,0,1-2.84-.25,3.25,3.25,0,0,1-2.58-2.7,2.89,2.89,0,0,1,1.67-3.28,18.91,18.91,0,0,1,3-1.24,2.1,2.1,0,0,0,1.6-1.87,7.94,7.94,0,0,0-1.08-6.06c-10.31-15.09-20.52-30.25-30.77-45.38q-13.59-20.06-27.21-40.07c-.35-.51-.75-1-1.4-1.83-.09,1-.17,1.55-.17,2.1q0,44.73,0,89.46c0,2.7.65,3.45,2.81,4a8.87,8.87,0,0,1,2,.95c1.4.78,1.5,2.07,1.3,3.45a2.78,2.78,0,0,1-2.42,2.49,15.16,15.16,0,0,1-2.85.24q-15,0-30,0a12.89,12.89,0,0,1-2.4-.2,3.47,3.47,0,0,1-2.75-2.8,3,3,0,0,1,1.8-3.42,21,21,0,0,1,2.84-1.14,2,2,0,0,0,1.41-1.78c.08-.87.22-1.75.22-2.62q0-65.9,0-131.77c0-.37,0-.74,0-1.1-.16-2.47-.78-3.66-3.57-3.69a56.15,56.15,0,0,1-6.35-.46c-2-.26-2.94-1.31-3-2.89a3.24,3.24,0,0,1,2.77-3.65h0a9.59,9.59,0,0,1,2.39-.22q13.33,0,26.66,0a7.2,7.2,0,0,0,1.54,0c3.56-.76,6,1.14,7.91,3.67s3.53,5.38,5.32,8.07q6,9.06,12.13,18.1,10.42,15.41,20.89,30.79l20.62,30.44c.2.29.44.55.66.83Z" transform="translate(0 0)" fill="#2e3192"/><path d="M45.1,133.42V136q0,31.52,0,63c0,4.35-.45,4.41,4.16,5.41.93.2,1.87.39,2.79.64a8.61,8.61,0,0,1,1.63.6c1.51.76,2.1,1.75,1.93,3.12a3.62,3.62,0,0,1-2.82,3,14.51,14.51,0,0,1-2.63.21q-19.83,0-39.66,0a13.51,13.51,0,0,1-2.62-.23A3.48,3.48,0,0,1,5.12,209a3.41,3.41,0,0,1,2.2-3.44c1.85-.69,3.75-1.25,5.64-1.81,2.2-.64,2.49-.91,2.49-3.2,0-7.42,0-14.83,0-22.25v-28c0-.76-.06-1.53-.1-2.5a2.07,2.07,0,0,0-1.4,2.45c.07,1.25.35,2.47-1.05,3.3a5.36,5.36,0,0,1-5,.52c-4.1-1.72-6.34-4.86-7.43-9.16-1.26-5,.26-9.11,3.4-12.82a37.54,37.54,0,0,1,9.81-8.43,3.16,3.16,0,0,0,1.83-3.13c0-17.48,0-35,0-52.44,0-2.7-.17-2.87-2.8-3.66-1.68-.5-3.39-1-5.05-1.53a3.34,3.34,0,0,1-2.5-3.23,3.39,3.39,0,0,1,2.77-3,10.38,10.38,0,0,1,2.6-.36q19.83,0,39.66,0a13,13,0,0,1,3,.42,3,3,0,0,1,2.47,3,2.76,2.76,0,0,1-2,3c-1.95.65-4,1.06-5.95,1.57s-2.43,1.08-2.55,3c0,.58,0,1.17,0,1.76V114.1c2.38.27,4.47.6,6.58.73a93.93,93.93,0,0,1,19.69,3.31,80.16,80.16,0,0,1,32.07,18.15,10,10,0,0,0,1.13.68c.06-.95.14-1.65.14-2.34q0-32.73,0-65.44v-.88c-.09-3.44-.57-4-3.88-4.68a23.08,23.08,0,0,1-3-.8,3.08,3.08,0,0,1-2.24-3,3.21,3.21,0,0,1,2.3-3.15,8,8,0,0,1,2.57-.45q19.5,0,39,0a6.87,6.87,0,0,1,2.57.49,3.2,3.2,0,0,1,2.18,3,3.12,3.12,0,0,1-2,2.93,18.32,18.32,0,0,1-2.72.87c-.84.24-1.71.4-2.55.68a2.35,2.35,0,0,0-1.67,2.11,18.7,18.7,0,0,0-.05,2V199.89c0,.66,0,1.33,0,2a2.82,2.82,0,0,0,2.27,2.85,14.55,14.55,0,0,1,2.49.83c1.73.79,2.22,1.62,2,3.22a3.24,3.24,0,0,1-2.79,3,16,16,0,0,1-2.85.23c-11.09,0-22.18,0-33.27,0a10.59,10.59,0,0,1-3.61-.67,2.83,2.83,0,0,1-1.86-3,3.1,3.1,0,0,1,2.12-2.83,15.07,15.07,0,0,1,2.08-.73c2-.45,2.72-1.84,2.74-3.7,0-2.57-.13-5.15.06-7.71a15.94,15.94,0,0,0-2-8.38,94.9,94.9,0,0,0-18.19-25.25c-4.46-4.46-8.79-9.06-13.29-13.48A53.17,53.17,0,0,0,58,137.31a39.32,39.32,0,0,0-11.4-3.88,10.73,10.73,0,0,0-1.5,0Z" transform="translate(0 0)" fill="#2e3192"/><path d="M749.24,183.39c1.17.06,2,.13,2.89.13,15.78,0,31.57-.11,47.36.08,5.14.06,8.46-2.29,11-6.32a18.58,18.58,0,0,0,2.61-8.61,4,4,0,0,0-1.2-.13,5,5,0,0,0-1.4.57c-5.66,3.1-9.37-.75-10.37-4.92-1-4.36,0-7.2,3.43-9.63,2.6-1.85,7.56-2.67,11-.48a15.08,15.08,0,0,1,6.34,8.7,41.57,41.57,0,0,1,1.23,17.43,70.76,70.76,0,0,0-.48,9,110.87,110.87,0,0,0,1,16.69,12.94,12.94,0,0,1,0,2.64,3,3,0,0,1-2.75,3.28h-.1a12.92,12.92,0,0,1-2.41.19H717.21a15.83,15.83,0,0,1-3.07-.24,3,3,0,0,1-2.57-2.64c-.13-1.55-.27-3.22,1.46-4a27.37,27.37,0,0,1,4.31-1.56c4.2-1.19,4.19-1.18,4.19-5.33q0-63.56,0-127.11c0-4.48-.18-4.68-4.64-5.63a24.17,24.17,0,0,1-4.43-1.12c-1.93-.8-2.55-2.59-2.08-5a3.56,3.56,0,0,1,3.52-3,17.17,17.17,0,0,1,1.76,0h37.89c3.72.13,5.51,2.5,4.46,6.07a3.54,3.54,0,0,1-1.6,1.93,23.62,23.62,0,0,1-4.3,1.59c-2.21.64-2.75,1.22-2.85,3.54,0,.52,0,1,0,1.55V183.4Z" transform="translate(0 0)" fill="#2e3192"/><path d="M820.12,44.82c2.58-6,4.61-11.92,4.62-18.27a66,66,0,0,0-.69-8.31,13.32,13.32,0,0,0-1.14-3.54c-1.13-2.57-1.53-2.85-4.37-3.3,1.13-2,2.24-3.78,3.28-5.66s2-3.75,3-5.74a6.31,6.31,0,0,1,3.52,3.06,26,26,0,0,1,3.19,9.77,60.35,60.35,0,0,1-3.64,30.7c-.66,1.71-1.29,3.45-2.09,5.09a4,4,0,0,0,0,4.07,25.3,25.3,0,0,1-4.78,29.47c-7.53,7.37-16.59,9.67-26.57,6.24s-15.8-10.66-17.24-21.14A25.11,25.11,0,0,1,789.9,41.8c9.63-5.35,19.12-4.7,28.21,1.51C818.72,43.72,819.29,44.18,820.12,44.82ZM815.6,64.9c.63-.6,1.14-.86,1.28-1.25a14.1,14.1,0,0,0,.73-8,4,4,0,0,0-3.46-3.2c-1.89-.35-3.72-.17-5.15,1.63a19.54,19.54,0,0,1,6.6,10.79Z" transform="translate(0 0)" fill="#d80001"/><path d="M101.26,225.12h7.41v13.24h12.17V225.12h7.4v34.36h-7.4V245.82H108.67v13.66h-7.41Z" transform="translate(0 0)" fill="#2e3192"/><path d="M131.56,242.29a16.91,16.91,0,0,1,5-12.58,16.48,16.48,0,0,1,11.94-5,17.83,17.83,0,0,1,12.7,30.15,16.77,16.77,0,0,1-12.46,5,16.53,16.53,0,0,1-12.37-5,17.35,17.35,0,0,1-4.85-12.64Zm17.32-10.68a8.51,8.51,0,0,0-7,3,11.66,11.66,0,0,0-2.64,7.89,11,11,0,0,0,2.7,7.6,8.78,8.78,0,0,0,6.8,3,8.92,8.92,0,0,0,7-3,11.3,11.3,0,0,0,2.66-7.83,11.08,11.08,0,0,0-2.6-7.7A9.09,9.09,0,0,0,148.88,231.61Z" transform="translate(0 0)" fill="#2e3192"/><path d="M172.15,225.12H181l6.43,20.6,6.44-20.6h8.49l4.43,34.36h-7.06l-3-24.18-7.56,24.18h-3.37L178,235.09l-2.86,24.39h-7.17Z" transform="translate(0 0)" fill="#2e3192"/><path d="M209.5,225.12h19.34v6.8H216.91v6.94h11.93v6.7H216.91v7.12h11.93v6.8H209.5Z" transform="translate(0 0)" fill="#2e3192"/><path d="M234.91,225.12h8.8l6.44,20.6,6.44-20.6h8.49l4.42,34.36h-7.05l-3-24.18-7.57,24.18h-3.36l-7.76-24.39-2.87,24.39h-7.17Z" transform="translate(0 0)" fill="#2e3192"/><path d="M284.15,225.12h5.74l14,34.36h-7.46l-2.75-6.75H280.49l-2.7,6.75h-7.41ZM287,236.37l-4,10.13h8.16Z" transform="translate(0 0)" fill="#2e3192"/><path d="M306.26,225.12H318q7.51,0,12.09,4.74c3.06,3.15,4.58,7.32,4.58,12.48s-1.57,9.34-4.72,12.46-7.34,4.69-12.58,4.68h-11.1Zm7.46,6.49v21.23h2.93a11.17,11.17,0,0,0,7.48-2.49c2-1.66,2.93-4.42,2.93-8.3a12.32,12.32,0,0,0-1.41-6,7.25,7.25,0,0,0-4.1-3.53,15.4,15.4,0,0,0-5.12-.93Z" transform="translate(0 0)" fill="#2e3192"/><path d="M337.81,225.12h19.34v6.8H345.22v6.94h11.93v6.7H345.22v7.12h11.93v6.8H337.81Z" transform="translate(0 0)" fill="#2e3192"/><path d="M372,225.12h7.41v34.36H372Z" transform="translate(0 0)" fill="#2e3192"/><path d="M409.26,227v8.38q-5.58-3.36-9.77-3.35a8.42,8.42,0,0,0-6.7,2.88,11.37,11.37,0,0,0-2.51,7.74,10.25,10.25,0,0,0,2.64,7.37,9.35,9.35,0,0,0,7.07,2.76q3.87,0,9.27-3.11v8.32a33.15,33.15,0,0,1-10.08,2,15.61,15.61,0,0,1-11.78-5.09,17.34,17.34,0,0,1-4.84-12.41,17.61,17.61,0,0,1,4.93-12.63,16,16,0,0,1,12-5.17,24.3,24.3,0,0,1,9.77,2.3Z" transform="translate(0 0)" fill="#2e3192"/><path d="M412.2,225.12h19.34v6.8H419.61v6.94h11.93v6.7H419.61v7.12h11.93v6.8H412.2Z" transform="translate(0 0)" fill="#2e3192"/><path d="M472.4,227v8.38q-5.58-3.36-9.76-3.35a8.4,8.4,0,0,0-6.7,2.88,11.32,11.32,0,0,0-2.51,7.74,10.16,10.16,0,0,0,2.64,7.37,9.35,9.35,0,0,0,7.07,2.76q3.87,0,9.26-3.11v8.32a33,33,0,0,1-10.07,2,15.58,15.58,0,0,1-11.78-5.09,17.31,17.31,0,0,1-4.85-12.41,17.62,17.62,0,0,1,4.94-12.63,15.93,15.93,0,0,1,12-5.17,24.25,24.25,0,0,1,9.76,2.3Z" transform="translate(0 0)" fill="#2e3192"/><path d="M475.22,225.12h11.32a11.7,11.7,0,0,1,8.16,2.72,9.41,9.41,0,0,1,3,7.35,12.5,12.5,0,0,1-1.38,5.49,9.59,9.59,0,0,1-5.07,4.48l9.62,14.32h-8.51l-8.9-13.3h-.83v13.3h-7.41Zm7.46,6.12v9h1.6q5.81,0,5.8-4.74a3.62,3.62,0,0,0-1.51-3.07,6.74,6.74,0,0,0-4.18-1.14Z" transform="translate(0 0)" fill="#2e3192"/><path d="M503.92,225.12h19.34v6.8H511.33v6.94h11.93v6.7H511.33v7.12h11.93v6.8H503.92Z" transform="translate(0 0)" fill="#2e3192"/><path d="M538.79,225.12h5.74l14,34.36h-7.45l-2.75-6.75H535.14l-2.69,6.75H525Zm2.87,11.25-4,10.13h8.17Z" transform="translate(0 0)" fill="#2e3192"/><path d="M563.53,225.12h8.8l6.43,20.6,6.44-20.6h8.5l4.42,34.36h-7l-3-24.18-7.56,24.18h-3.36l-7.77-24.39-2.86,24.39h-7.17Z" transform="translate(0 0)" fill="#2e3192"/><path d="M631.7,228.23l-4.6,5.06c-2.43-1.44-4.17-2.15-5.24-2.15a2.83,2.83,0,0,0-2.12.93,3.09,3.09,0,0,0-.89,2.21q0,2.53,4.61,4.4a31.38,31.38,0,0,1,5.1,2.6,9.15,9.15,0,0,1,2.89,3.23,8.92,8.92,0,0,1,1.17,4.48,10.11,10.11,0,0,1-3.58,7.69A12,12,0,0,1,620.6,260q-5.34,0-10.54-5l4.86-5.68q3.29,3.38,6.13,3.37a3.62,3.62,0,0,0,2.56-1.18,3.52,3.52,0,0,0,1.24-2.5c0-1.79-1.9-3.37-5.68-4.74a18.82,18.82,0,0,1-4.61-2.21,8,8,0,0,1-2.29-3,9.35,9.35,0,0,1-.93-4,9.82,9.82,0,0,1,3-7.43,10.81,10.81,0,0,1,7.8-2.85,13.6,13.6,0,0,1,9.58,3.58Z" transform="translate(0 0)" fill="#2e3192"/><path d="M637.57,225.12H645v34.36h-7.41Z" transform="translate(0 0)" fill="#2e3192"/><path d="M674.58,225.12h7.25v34.36h-7.22L658.9,237.24v22.24h-7.41V225.12h7.33l15.76,22.09Z" transform="translate(0 0)" fill="#2e3192"/><path d="M714.41,227v8.38q-5.58-3.36-9.76-3.35a8.4,8.4,0,0,0-6.7,2.88,11.32,11.32,0,0,0-2.51,7.74,10.16,10.16,0,0,0,2.64,7.37,9.35,9.35,0,0,0,7.07,2.76q3.87,0,9.26-3.11v8.32a33,33,0,0,1-10.08,2,15.58,15.58,0,0,1-11.77-5.09,17.31,17.31,0,0,1-4.85-12.41,17.62,17.62,0,0,1,4.94-12.63,15.93,15.93,0,0,1,12-5.17,24.25,24.25,0,0,1,9.76,2.3Z" transform="translate(0 0)" fill="#2e3192"/><path d="M720,225.12h19.34v6.8H727.44v6.94h11.94v6.7H727.44v7.12h11.94v6.8H720Z" transform="translate(0 0)" fill="#2e3192"/><path d="M763.4,226.14h10.86v33.34h-7.33V232.21h-4.81Z" transform="translate(0 0)" fill="#2e3192"/><path d="M796.58,259.48h-8.89l8.3-11.3c-1.57.17-2.57.26-3,.26a9.86,9.86,0,0,1-7.47-3.23,11.17,11.17,0,0,1-3-8,10.72,10.72,0,0,1,3.74-8.31,13.33,13.33,0,0,1,9.29-3.36,11.52,11.52,0,0,1,8.62,3.38,12,12,0,0,1,3.34,8.79,17.59,17.59,0,0,1-2,7.85,46.88,46.88,0,0,1-3.31,5.86Zm3.82-21.82a5.12,5.12,0,0,0-1.54-3.76,5.2,5.2,0,0,0-3.82-1.53,4.64,4.64,0,0,0-3.49,1.57,5.24,5.24,0,0,0-1.46,3.72,5,5,0,0,0,1.48,3.66,4.86,4.86,0,0,0,3.58,1.49,5.13,5.13,0,0,0,3.7-1.51,4.94,4.94,0,0,0,1.55-3.64Z" transform="translate(0 0)" fill="#2e3192"/><path d="M825.39,226.09h6.75v19.29h3.17v6.12h-3.17v8h-7.32v-8H810v-6.18Zm-.68,8.38-8.6,10.91h8.71V234.47Z" transform="translate(0 0)" fill="#2e3192"/><path d="M845.07,226h16.54v6.12H851.56l-.38,4q5.7,0,8.77,3.34a11.25,11.25,0,0,1,3.08,7.86,11.84,11.84,0,0,1-4,8.89,13.14,13.14,0,0,1-9.38,3.75,12.86,12.86,0,0,1-4.52-.72,20.79,20.79,0,0,1-4.38-2.36l.79-7.62q5.46,3.65,8.58,3.64a5.44,5.44,0,0,0,3.9-1.61,5.08,5.08,0,0,0,1.68-3.76,5.31,5.31,0,0,0-1.68-4,5.92,5.92,0,0,0-4.21-1.6,16.6,16.6,0,0,0-6.44,1.47Z" transform="translate(0 0)" fill="#2e3192"/><path d="M935,106.55a10.87,10.87,0,1,1,3.19,7.63A10.46,10.46,0,0,1,935,106.55Zm19.51,0a8.41,8.41,0,0,0-2.54-6.15,8.69,8.69,0,1,0,2.54,6.15Zm-13.58,5.79,0-11.49h5.43a4.24,4.24,0,0,1,2.85.85,3.29,3.29,0,0,1,.17,4.53,3.59,3.59,0,0,1-2.27,1v.06a2.61,2.61,0,0,1,1.12.69,13.6,13.6,0,0,1,1.3,2l1.36,2.32H948l-1-1.89a8.51,8.51,0,0,0-1.49-2.21,2.41,2.41,0,0,0-1.72-.6h-.61v4.7Zm2.33-6.54h1.89a4.15,4.15,0,0,0,2-.36,1.38,1.38,0,0,0,.6-1.28c0-1-.8-1.48-2.4-1.48h-2.12Z" transform="translate(0 0)" fill="#2e3192"/><path d="M875.33,232h81.2V254h-81.2Z" transform="translate(0 0)" fill="#2e3192"/><path d="M5,232H86.21V254H5Z" transform="translate(0 0)" fill="#2e3192"/></svg>