<svg id="Layer_1" data-name="Layer 1" xmlns="http://www.w3.org/2000/svg" viewBox="0 0 55.16 89.96"><path d="M699.29 381.53c2.58-6 4.61-11.92 4.62-18.27a64.08 64.08 0 00-.69-8.31 13 13 0 00-1.14-3.54c-1.13-2.57-1.53-2.85-4.37-3.3 1.13-2 2.24-3.78 3.28-5.66s2-3.75 3-5.74a6.27 6.27 0 013.52 3.06 26 26 0 013.19 9.77 60.38 60.38 0 01-3.64 30.7c-.66 1.71-1.29 3.45-2.09 5.09a4 4 0 000 4.07 25.3 25.3 0 01-4.78 29.47c-7.53 7.37-16.59 9.67-26.57 6.24s-15.8-10.66-17.24-21.14a25.11 25.11 0 0112.69-25.46c9.63-5.35 19.12-4.7 28.21 1.51.61.41 1.18.87 2.01 1.51zm-4.52 20.08c.63-.6 1.14-.86 1.28-1.25a14 14 0 00.73-8 4 4 0 00-3.46-3.2c-1.89-.35-3.72-.17-5.15 1.63a19.48 19.48 0 016.6 10.79z" transform="translate(-656.14 -336.71)" fill="#d80001"/></svg>